<svg width="157" height="18" viewBox="0 0 157 18" fill="none" xmlns="http://www.w3.org/2000/svg">
<path d="M72.3072 9.9781C70.4297 9.9781 68.5756 9.30798 66.9453 8.04101C66.6014 7.77433 66.1198 7.77433 65.777 8.04101C64.1456 9.30798 62.2916 9.9781 60.4151 9.9781C58.5385 9.9781 56.6835 9.30798 55.0532 8.04101C54.7093 7.77433 54.2277 7.77433 53.8848 8.04101C52.2535 9.30798 50.3995 9.9781 48.5229 9.9781C46.6464 9.9781 44.7914 9.30798 43.161 8.04101C42.8172 7.77433 42.3356 7.77433 41.9927 8.04101C40.3614 9.30798 38.5073 9.9781 36.6308 9.9781C34.7543 9.9781 32.8993 9.30798 31.2689 8.04101C30.9251 7.77433 30.4435 7.77433 30.0996 8.04101C28.4683 9.30798 26.6142 9.9781 24.7377 9.9781C22.8612 9.9781 21.0062 9.30798 19.3758 8.04101C19.032 7.77433 18.5504 7.77433 18.2065 8.04101C16.5752 9.30798 14.7211 9.9781 12.8446 9.9781C10.9681 9.9781 9.11306 9.30798 7.48271 8.04101C7.13886 7.77433 6.65727 7.77433 6.31342 8.04101C4.68209 9.30798 2.82804 9.9781 0.951517 9.9781C0.425973 9.9781 6.86646e-05 10.403 6.86646e-05 10.9286C6.86646e-05 11.4541 0.425973 11.879 0.951517 11.879C3.03122 11.879 5.07283 11.2207 6.89855 9.96833C8.7233 11.2207 10.7659 11.879 12.8456 11.879C14.9253 11.879 16.9669 11.2207 18.7926 9.96833C20.6174 11.2207 22.66 11.879 24.7397 11.879C26.8194 11.879 28.861 11.2207 30.6867 9.96833C32.5115 11.2207 34.554 11.879 36.6338 11.879C38.7135 11.879 40.7551 11.2207 42.5808 9.96833C44.4055 11.2207 46.4481 11.879 48.5278 11.879C50.6075 11.879 52.6491 11.2207 54.4749 9.96833C56.2996 11.2207 58.3422 11.879 60.4219 11.879C62.5016 11.879 64.5432 11.2207 66.3689 9.96833C68.1937 11.2207 70.2363 11.879 72.316 11.879C72.8415 11.879 73.2674 11.4541 73.2674 10.9286C73.2674 10.403 72.8415 9.9781 72.316 9.9781H72.3072Z" fill="white"/>
<path d="M72.3071 4.27568C70.4296 4.27568 68.5756 3.60556 66.9452 2.33859C66.6014 2.07191 66.1198 2.07191 65.7769 2.33859C64.1456 3.60556 62.2915 4.27568 60.415 4.27568C58.5385 4.27568 56.6834 3.60556 55.0531 2.33859C54.7092 2.07191 54.2276 2.07191 53.8848 2.33859C52.2534 3.60556 50.3994 4.27568 48.5229 4.27568C46.6464 4.27568 44.7913 3.60556 43.161 2.33859C42.8171 2.07191 42.3355 2.07191 41.9927 2.33859C40.3613 3.60556 38.5073 4.27568 36.6307 4.27568C34.7542 4.27568 32.8992 3.60556 31.2688 2.33859C30.925 2.07191 30.4434 2.07191 30.0996 2.33859C28.4682 3.60556 26.6142 4.27568 24.7376 4.27568C22.8611 4.27568 21.0061 3.60556 19.3757 2.33859C19.0319 2.07191 18.5503 2.07191 18.2065 2.33859C16.5751 3.60556 14.7211 4.27568 12.8445 4.27568C10.968 4.27568 9.113 3.60556 7.48264 2.33859C7.13879 2.07191 6.65721 2.07191 6.31336 2.33859C4.68202 3.60556 2.82797 4.27568 0.951448 4.27568C0.425905 4.27568 0 4.7006 0 5.22615C0 5.75169 0.425905 6.17662 0.951448 6.17662C3.03115 6.17662 5.07276 5.51823 6.89849 4.26591C8.72323 5.51823 10.7658 6.17662 12.8455 6.17662C14.9252 6.17662 16.9668 5.51823 18.7926 4.26591C20.6173 5.51823 22.6599 6.17662 24.7396 6.17662C26.8193 6.17662 28.8609 5.51823 30.6866 4.26591C32.5114 5.51823 34.554 6.17662 36.6337 6.17662C38.7134 6.17662 40.755 5.51823 42.5807 4.26591C44.4055 5.51823 46.4481 6.17662 48.5278 6.17662C50.6075 6.17662 52.6491 5.51823 54.4748 4.26591C56.2995 5.51823 58.3421 6.17662 60.4218 6.17662C62.5015 6.17662 64.5431 5.51823 66.3689 4.26591C68.1936 5.51823 70.2362 6.17662 72.3159 6.17662C72.8415 6.17662 73.2674 5.75169 73.2674 5.22615C73.2674 4.7006 72.8415 4.27568 72.3159 4.27568H72.3071Z" fill="white"/>
<path d="M72.3072 15.6786C70.4297 15.6786 68.5756 15.0085 66.9453 13.7415C66.6014 13.4748 66.1198 13.4748 65.777 13.7415C64.1456 15.0085 62.2916 15.6786 60.4151 15.6786C58.5385 15.6786 56.6835 15.0085 55.0532 13.7415C54.7093 13.4748 54.2277 13.4748 53.8848 13.7415C52.2535 15.0085 50.3995 15.6786 48.5229 15.6786C46.6464 15.6786 44.7914 15.0085 43.161 13.7415C42.8172 13.4748 42.3356 13.4748 41.9927 13.7415C40.3614 15.0085 38.5073 15.6786 36.6308 15.6786C34.7543 15.6786 32.8993 15.0085 31.2689 13.7415C30.9251 13.4748 30.4435 13.4748 30.0996 13.7415C28.4683 15.0085 26.6142 15.6786 24.7377 15.6786C22.8612 15.6786 21.0062 15.0085 19.3758 13.7415C19.032 13.4748 18.5504 13.4748 18.2065 13.7415C16.5752 15.0085 14.7211 15.6786 12.8446 15.6786C10.9681 15.6786 9.11306 15.0085 7.48271 13.7415C7.13886 13.4748 6.65727 13.4748 6.31342 13.7415C4.68209 15.0085 2.82804 15.6786 0.951517 15.6786C0.425973 15.6786 6.86646e-05 16.1035 6.86646e-05 16.629C6.86646e-05 17.1546 0.425973 17.5795 0.951517 17.5795C3.03122 17.5795 5.07283 16.9211 6.89855 15.6688C8.7233 16.9211 10.7659 17.5795 12.8456 17.5795C14.9253 17.5795 16.9669 16.9211 18.7926 15.6688C20.6174 16.9211 22.66 17.5795 24.7397 17.5795C26.8194 17.5795 28.861 16.9211 30.6867 15.6688C32.5115 16.9211 34.554 17.5795 36.6338 17.5795C38.7135 17.5795 40.7551 16.9211 42.5808 15.6688C44.4055 16.9211 46.4481 17.5795 48.5278 17.5795C50.6075 17.5795 52.6491 16.9211 54.4749 15.6688C56.2996 16.9211 58.3422 17.5795 60.4219 17.5795C62.5016 17.5795 64.5432 16.9211 66.3689 15.6688C68.1937 16.9211 70.2363 17.5795 72.316 17.5795C72.8415 17.5795 73.2674 17.1546 73.2674 16.629C73.2674 16.1035 72.8415 15.6786 72.316 15.6786H72.3072Z" fill="white"/>
<path d="M82.7819 0.755885C82.6725 0.564424 82.4537 0.468692 82.1254 0.468692H81.891V0.234253H84.9388C85.689 0.234253 86.365 0.394454 86.9667 0.71486C87.5684 1.03527 87.8693 1.65654 87.8693 2.57868C87.8693 3.18824 87.713 3.65712 87.4004 3.98534C87.0878 4.31356 86.7381 4.53238 86.3513 4.64178C85.9645 4.75119 85.6108 4.80589 85.2904 4.80589H84.001V7.97087H82.946V1.64091C82.946 1.24235 82.8913 0.947347 82.7819 0.755885ZM85.6773 4.2022C85.9586 4.07326 86.1989 3.86812 86.3982 3.58678C86.5975 3.30545 86.6971 2.94988 86.6971 2.52007C86.6971 2.09026 86.5975 1.73469 86.3982 1.45335C86.1989 1.17202 85.9586 0.966887 85.6773 0.837943C85.3959 0.708999 85.1302 0.644524 84.8802 0.644524C84.6066 0.644524 84.3136 0.683599 84.001 0.761746V4.27839C84.3136 4.35654 84.6066 4.39562 84.8802 4.39562C85.1302 4.39562 85.3959 4.33115 85.6773 4.2022Z" fill="white"/>
<path d="M94.1874 7.68931C93.8201 7.50176 93.5271 7.10711 93.3083 6.50538L93.0152 5.68483H89.733L88.7952 7.97065H88.2677L91.5499 0.175415H91.9016L94.4805 6.50538C94.6758 6.95863 94.8595 7.26927 95.0314 7.43729C95.2033 7.60531 95.4495 7.70397 95.7699 7.7323V7.97065H95.301C94.9259 7.97065 94.5547 7.87687 94.1874 7.68931ZM92.7808 5.21594L91.3741 1.81652L89.9088 5.21594H92.7808Z" fill="white"/>
<path d="M97.118 0.755885C97.0086 0.564424 96.7897 0.468692 96.4615 0.468692H96.2271V0.234253H97.2821C97.5712 0.234253 97.7881 0.271369 97.9327 0.345609C98.0772 0.419849 98.1808 0.554655 98.2433 0.750025C98.3058 0.945394 98.3371 1.24235 98.3371 1.64091V7.50198H102.498V7.97087H97.2821V1.64091C97.2821 1.24235 97.2274 0.947347 97.118 0.755885Z" fill="white"/>
<path d="M111.607 8.24048C111.294 8.06855 111.073 7.8009 110.945 7.43751C110.816 7.07413 110.751 6.58766 110.751 5.97811V1.46508L107.821 7.97087H107.586L104.538 1.34785V7.97087H104.069V0.234253H105.183L107.996 6.32977L110.751 0.234253H111.806V5.97811C111.806 6.70488 111.898 7.26754 112.082 7.66609C112.265 8.06465 112.545 8.26392 112.92 8.26392V8.49837C112.357 8.49837 111.919 8.4124 111.607 8.24048Z" fill="white"/>
<path d="M118.265 0.755885C118.155 0.564424 117.937 0.468692 117.608 0.468692H117.374V0.234253H120.422C121.273 0.234253 122.014 0.374914 122.643 0.656245C123.272 0.937577 123.587 1.48071 123.587 2.28563C123.587 2.65292 123.462 2.98505 123.212 3.28201C122.961 3.57897 122.579 3.81341 122.063 3.98534C122.782 4.10256 123.284 4.31552 123.569 4.6242C123.854 4.93288 123.997 5.34511 123.997 5.86088C123.997 6.65018 123.686 7.19916 123.065 7.50785C122.444 7.81653 121.68 7.97087 120.773 7.97087H118.429V1.64091C118.429 1.24235 118.374 0.947347 118.265 0.755885ZM121.506 3.62782C121.791 3.50669 122.024 3.32695 122.203 3.08859C122.383 2.85024 122.473 2.56305 122.473 2.22702C122.473 1.89098 122.368 1.58034 122.157 1.34199C121.946 1.10364 121.678 0.927814 121.354 0.8145C121.029 0.701186 120.699 0.644524 120.363 0.644524C120.09 0.644524 119.796 0.683599 119.484 0.761746V3.80951H120.598C120.918 3.80951 121.221 3.74894 121.506 3.62782ZM122.244 7.1386C122.631 6.85727 122.825 6.4509 122.825 5.91949C122.825 5.38809 122.635 4.98172 122.256 4.70039C121.877 4.41906 121.324 4.27839 120.598 4.27839H119.484V7.39648C119.859 7.50589 120.23 7.5606 120.598 7.5606C121.309 7.5606 121.858 7.41993 122.244 7.1386Z" fill="white"/>
<path d="M126.142 0.755885C126.033 0.564424 125.814 0.468692 125.486 0.468692H125.251V0.234253H130.245C130.909 0.234253 131.241 0.546841 131.241 1.17202V2.05118H131.007C131.007 1.15249 130.518 0.703138 129.541 0.703138H127.361V3.7509H130.526V4.21978H127.361V7.50198H129.412C129.952 7.50198 130.374 7.4043 130.678 7.20893C130.983 7.01356 131.226 6.68143 131.405 6.21255L131.64 6.27116L131.229 7.38476C131.089 7.7755 130.796 7.97087 130.35 7.97087H126.306V1.64091C126.306 1.24235 126.251 0.947347 126.142 0.755885Z" fill="white"/>
<path d="M138.743 7.68931C138.376 7.50176 138.083 7.10711 137.864 6.50538L137.571 5.68483H134.289L133.351 7.97065H132.824L136.106 0.175415H136.458L139.037 6.50538C139.232 6.95863 139.416 7.26927 139.587 7.43729C139.759 7.60531 140.006 7.70397 140.326 7.7323V7.97065H139.857C139.482 7.97065 139.111 7.87687 138.743 7.68931ZM137.337 5.21594L135.93 1.81652L134.465 5.21594H137.337Z" fill="white"/>
<path d="M142.664 7.67801C142.113 7.32634 141.689 6.84769 141.392 6.24205C141.096 5.6364 140.947 4.96238 140.947 4.21998C140.947 3.47757 141.109 2.74689 141.434 2.09826C141.758 1.44964 142.199 0.937773 142.758 0.562664C143.317 0.187555 143.924 0 144.581 0C145.237 0 145.755 0.0879173 146.228 0.26375C146.701 0.439582 147.05 0.664253 147.277 0.93777C147.41 1.10188 147.492 1.31874 147.523 1.58835C147.554 1.85796 147.57 2.22721 147.57 2.69609H147.336C147.187 1.93806 146.914 1.37735 146.515 1.01397C146.117 0.65058 145.589 0.468885 144.933 0.468885C144.089 0.468885 143.409 0.765846 142.893 1.35977C142.377 1.95369 142.119 2.9071 142.119 4.21998C142.119 4.83734 142.219 5.41173 142.418 5.94313C142.617 6.47454 142.928 6.9063 143.35 7.23843C143.772 7.57055 144.3 7.73662 144.933 7.73662C145.503 7.73662 146.001 7.59986 146.427 7.32635C146.853 7.05283 147.234 6.64256 147.57 6.09552L147.805 6.27135C147.445 6.97468 147.002 7.47287 146.474 7.76593C145.947 8.05898 145.316 8.20551 144.581 8.20551C143.846 8.20551 143.215 8.02967 142.664 7.67801Z" fill="white"/>
<path d="M149.891 0.755885C149.782 0.564424 149.563 0.468692 149.235 0.468692H149V0.234253H150.055C150.345 0.234253 150.561 0.271369 150.706 0.345609C150.851 0.419849 150.954 0.554655 151.017 0.750025C151.079 0.945394 151.11 1.24235 151.11 1.64091V3.7509H154.627V0.234253H155.682V6.56421C155.682 6.96277 155.737 7.25778 155.846 7.44924C155.956 7.6407 156.174 7.73643 156.503 7.73643H156.737V7.97087H155.682C155.393 7.97087 155.176 7.93375 155.031 7.85951C154.887 7.78527 154.783 7.65047 154.721 7.4551C154.658 7.25973 154.627 6.96277 154.627 6.56421V4.21978H151.11V7.97087H150.055V1.64091C150.055 1.24235 150.001 0.947347 149.891 0.755885Z" fill="white"/>
<path d="M89.4282 15.211H87.1365V13.4116H86.609V17.573H87.1365V15.6799H89.4282V17.573H89.9557V13.4116H89.4282V15.211Z" fill="white"/>
<path d="M94.6506 14.0509C94.4787 13.8477 94.2735 13.6856 94.0352 13.5644C93.7968 13.4433 93.5311 13.3828 93.2381 13.3828C92.945 13.3828 92.6969 13.4404 92.4586 13.5557C92.2202 13.6709 92.0121 13.8272 91.8344 14.0245C91.6566 14.2219 91.5179 14.4465 91.4182 14.6986C91.3186 14.9506 91.2688 15.2153 91.2688 15.4927C91.2688 15.7702 91.3156 16.0173 91.4094 16.2693C91.5032 16.5214 91.637 16.748 91.8109 16.9492C91.9848 17.1504 92.1909 17.3097 92.4293 17.4269C92.6676 17.5441 92.9333 17.6027 93.2264 17.6027C93.5194 17.6027 93.7675 17.5461 94.0059 17.4328C94.2442 17.3194 94.4523 17.1641 94.6301 16.9668C94.8079 16.7695 94.9456 16.5448 95.0433 16.2928C95.141 16.0407 95.1898 15.776 95.1898 15.4986C95.1898 15.2368 95.1429 14.9809 95.0492 14.7308C94.9554 14.4807 94.8225 14.2541 94.6506 14.0509ZM94.5598 16.0847C94.4953 16.2801 94.4015 16.4559 94.2784 16.6122C94.1553 16.7685 94.0059 16.8935 93.8301 16.9873C93.6542 17.0811 93.4549 17.128 93.2322 17.128C93.0095 17.128 92.8219 17.083 92.6461 16.9932C92.4703 16.9033 92.3198 16.7822 92.1948 16.6298C92.0698 16.4774 91.9731 16.3025 91.9047 16.1052C91.8363 15.9079 91.8021 15.7037 91.8021 15.4927C91.8021 15.2817 91.8353 15.0913 91.9018 14.8978C91.9682 14.7044 92.0629 14.5296 92.186 14.3733C92.3091 14.217 92.4586 14.0929 92.6344 14.0011C92.8102 13.9093 93.0095 13.8634 93.2322 13.8634C93.4432 13.8634 93.6357 13.9073 93.8095 13.9952C93.9834 14.0832 94.1338 14.2043 94.2608 14.3586C94.3878 14.513 94.4855 14.6878 94.5539 14.8832C94.6223 15.0786 94.6565 15.2817 94.6565 15.4927C94.6565 15.692 94.6242 15.8893 94.5598 16.0847Z" fill="white"/>
<path d="M95.9811 13.8806H97.4171V17.573H97.9445V13.8806H99.3805V13.4117H95.9811V13.8806Z" fill="white"/>
<path d="M101.092 15.6682H103.044V15.2286H101.092V13.8806H103.337V13.4117H100.565V17.573H103.39V17.1042H101.092V15.6682Z" fill="white"/>
<path d="M105.224 13.4117H104.696V17.573H107.545V17.1042H105.224V13.4117Z" fill="white"/>
<path d="M111.683 13.4117L109.977 17.573H110.54L111.009 16.3539H112.799L113.266 17.573H113.828L112.128 13.4117H111.683ZM111.166 15.9437L111.906 14.0212L112.641 15.9437H111.166Z" fill="white"/>
<path d="M117.96 16.6646L115.416 13.4117H114.971V17.573H115.498V14.3846L118.007 17.573H118.487V13.4175H117.96V16.6646Z" fill="white"/>
<path d="M122.628 13.6901C122.329 13.5045 121.957 13.4117 121.512 13.4117H120.07V17.573H121.512C121.922 17.573 122.278 17.4871 122.579 17.3152C122.879 17.1432 123.112 16.901 123.276 16.5884C123.44 16.2758 123.522 15.9085 123.522 15.4865C123.522 15.1036 123.448 14.7548 123.299 14.4403C123.151 14.1258 122.927 13.8757 122.628 13.6901ZM122.819 16.31C122.706 16.5542 122.54 16.7476 122.321 16.8902C122.102 17.0328 121.832 17.1042 121.512 17.1042H120.598V13.8806H121.512C121.828 13.8806 122.096 13.9489 122.315 14.0857C122.534 14.2225 122.701 14.412 122.816 14.6542C122.931 14.8965 122.989 15.1739 122.989 15.4865C122.989 15.7991 122.932 16.0658 122.819 16.31Z" fill="white"/>
<path d="M129.551 15.7268C129.681 15.6057 129.783 15.4592 129.855 15.2872C129.928 15.1153 129.964 14.9336 129.964 14.7421C129.964 14.578 129.933 14.4169 129.87 14.2586C129.807 14.1004 129.72 13.9577 129.606 13.8308C129.493 13.7038 129.36 13.6022 129.208 13.526C129.055 13.4498 128.887 13.4117 128.704 13.4117H126.922V17.573H127.449V16.0785H128.551L129.501 17.573H130.099L129.09 15.9788C129.266 15.9319 129.42 15.8479 129.551 15.7268ZM128.71 15.6096H127.449V13.8806H128.674C128.811 13.8806 128.936 13.9196 129.049 13.9978C129.163 14.0759 129.255 14.1805 129.325 14.3114C129.395 14.4423 129.43 14.5859 129.43 14.7421C129.43 14.8984 129.4 15.0372 129.34 15.17C129.279 15.3029 129.195 15.4093 129.088 15.4894C128.98 15.5695 128.854 15.6096 128.71 15.6096Z" fill="white"/>
<path d="M131.886 15.6682H133.838V15.2286H131.886V13.8806H134.131V13.4117H131.359V17.573H134.184V17.1042H131.886V15.6682Z" fill="white"/>
<path d="M137.712 15.4876C137.501 15.3978 137.251 15.3216 136.962 15.26C136.712 15.2014 136.506 15.1448 136.343 15.091C136.181 15.0363 136.061 14.966 135.983 14.881C135.905 14.7951 135.866 14.6788 135.866 14.5303C135.866 14.3203 135.942 14.1542 136.094 14.0341C136.247 13.913 136.483 13.8534 136.804 13.8534C136.929 13.8534 137.049 13.8661 137.164 13.8915C137.279 13.9169 137.386 13.9501 137.483 13.9911C137.581 14.0321 137.669 14.0781 137.747 14.1288C137.825 14.1796 137.888 14.2324 137.935 14.2871L138.181 13.8592C138.064 13.7616 137.935 13.6775 137.794 13.6072C137.653 13.5369 137.502 13.4822 137.34 13.4431C137.178 13.404 137.003 13.3845 136.815 13.3845C136.53 13.3845 136.274 13.4314 136.047 13.5252C135.821 13.6189 135.643 13.7567 135.514 13.9403C135.385 14.124 135.321 14.3477 135.321 14.6124C135.321 14.8302 135.369 15.008 135.464 15.1448C135.56 15.2815 135.704 15.3909 135.895 15.4749C136.087 15.5589 136.323 15.6361 136.604 15.7055C136.862 15.768 137.081 15.8305 137.261 15.893C137.44 15.9555 137.576 16.0337 137.668 16.1265C137.76 16.2203 137.806 16.3443 137.806 16.5006C137.806 16.7067 137.724 16.863 137.56 16.9705C137.396 17.077 137.165 17.1307 136.868 17.1307C136.712 17.1307 136.559 17.1141 136.411 17.0809C136.262 17.0477 136.125 17.0037 135.998 16.949C135.871 16.8943 135.757 16.8347 135.658 16.7702C135.558 16.7058 135.477 16.6403 135.414 16.5739L135.162 17.0193C135.319 17.1483 135.487 17.2557 135.666 17.3417C135.846 17.4277 136.037 17.4931 136.238 17.538C136.439 17.583 136.645 17.6054 136.856 17.6054C137.067 17.6054 137.27 17.583 137.454 17.538C137.638 17.4931 137.798 17.4228 137.935 17.328C138.071 17.2323 138.178 17.1121 138.254 16.9656C138.33 16.8191 138.368 16.6472 138.368 16.4489C138.368 16.1998 138.312 16.0005 138.198 15.85C138.085 15.7006 137.923 15.5804 137.712 15.4906V15.4876Z" fill="white"/>
<path d="M142.759 14.0509C142.587 13.8477 142.381 13.6856 142.143 13.5644C141.905 13.4433 141.639 13.3828 141.346 13.3828C141.053 13.3828 140.805 13.4404 140.566 13.5557C140.328 13.6709 140.12 13.8272 139.942 14.0245C139.765 14.2219 139.626 14.4465 139.526 14.6986C139.427 14.9506 139.377 15.2153 139.377 15.4927C139.377 15.7702 139.424 16.0173 139.517 16.2693C139.611 16.5214 139.745 16.748 139.919 16.9492C140.093 17.1504 140.299 17.3097 140.537 17.4269C140.776 17.5441 141.041 17.6027 141.334 17.6027C141.627 17.6027 141.875 17.5461 142.114 17.4328C142.352 17.3194 142.56 17.1641 142.738 16.9668C142.916 16.7695 143.054 16.5448 143.151 16.2928C143.249 16.0407 143.298 15.776 143.298 15.4986C143.298 15.2368 143.251 14.9809 143.157 14.7308C143.063 14.4807 142.93 14.2541 142.759 14.0509ZM142.668 16.0847C142.603 16.2801 142.509 16.4559 142.386 16.6122C142.263 16.7685 142.114 16.8935 141.938 16.9873C141.762 17.0811 141.563 17.128 141.34 17.128C141.117 17.128 140.93 17.083 140.754 16.9932C140.578 16.9033 140.428 16.7822 140.303 16.6298C140.178 16.4774 140.081 16.3025 140.013 16.1052C139.944 15.9079 139.91 15.7037 139.91 15.4927C139.91 15.2817 139.943 15.0913 140.01 14.8978C140.076 14.7044 140.171 14.5296 140.294 14.3733C140.417 14.217 140.567 14.0929 140.742 14.0011C140.918 13.9093 141.117 13.8634 141.34 13.8634C141.551 13.8634 141.744 13.9073 141.917 13.9952C142.091 14.0832 142.242 14.2043 142.369 14.3586C142.496 14.513 142.593 14.6878 142.662 14.8832C142.73 15.0786 142.764 15.2817 142.764 15.4927C142.764 15.692 142.732 15.8893 142.668 16.0847Z" fill="white"/>
<path d="M147.245 15.7268C147.376 15.6057 147.478 15.4592 147.55 15.2872C147.622 15.1153 147.658 14.9336 147.658 14.7421C147.658 14.578 147.627 14.4169 147.564 14.2586C147.502 14.1004 147.414 13.9577 147.301 13.8308C147.187 13.7038 147.055 13.6022 146.902 13.526C146.75 13.4498 146.582 13.4117 146.398 13.4117H144.616V17.573H145.144V16.0785H146.246L147.195 17.573H147.793L146.785 15.9788C146.961 15.9319 147.114 15.8479 147.245 15.7268ZM146.404 15.6096H145.144V13.8806H146.369C146.506 13.8806 146.631 13.9196 146.744 13.9978C146.857 14.0759 146.949 14.1805 147.019 14.3114C147.09 14.4423 147.125 14.5859 147.125 14.7421C147.125 14.8984 147.095 15.0372 147.034 15.17C146.973 15.3029 146.889 15.4093 146.782 15.4894C146.675 15.5695 146.549 15.6096 146.404 15.6096Z" fill="white"/>
<path d="M148.619 13.4117V13.8806H150.055V17.573H150.583V13.8806H152.019V13.4117H148.619Z" fill="white"/>
</svg>
