<svg width="114" height="114" viewBox="0 0 114 114" fill="none" xmlns="http://www.w3.org/2000/svg">
<g filter="url(#filter0_b_1196_536)">
<circle cx="57.1128" cy="57.6238" r="41.2722" fill="url(#paint0_radial_1196_536)"/>
<circle cx="57.1128" cy="57.6238" r="41.5473" stroke="url(#paint1_radial_1196_536)" stroke-width="0.550295"/>
</g>
<path d="M53.7766 106.547L53.1993 106.488L52.8053 110.352L52.7609 110.347L52.2223 106.389L51.3637 106.301L50.0372 110.07L49.9928 110.065L50.3867 106.202L49.8094 106.143L49.2812 111.324L50.1249 111.41L51.7036 107.001L51.748 107.006L52.4046 111.642L53.2483 111.728L53.7766 106.547Z" fill="white"/>
<path d="M45.7317 105.25C44.6005 104.99 43.5646 105.646 43.3049 106.777C43.0451 107.908 43.677 108.946 44.8154 109.208C45.9393 109.466 46.9808 108.819 47.2422 107.681C47.5053 106.535 46.8628 105.51 45.7317 105.25ZM45.6118 105.772C46.4167 105.957 46.8497 106.698 46.6549 107.546C46.4651 108.373 45.7546 108.874 44.9425 108.687C44.1304 108.501 43.7007 107.746 43.8922 106.912C44.0853 106.071 44.7997 105.586 45.6118 105.772Z" fill="white"/>
<path d="M39.1544 103.365L38.3995 103.09L38.2236 103.572L38.9435 103.835C39.3629 103.988 39.4255 104.272 39.2827 104.663L38.5306 106.725L37.0699 106.192L36.8991 106.66L38.3598 107.193L37.9749 108.249L38.4921 108.437L38.8108 107.564C38.8541 107.445 38.9539 107.41 39.0518 107.446L40.0233 107.8L40.1941 107.332L39.0828 106.926L39.8375 104.858C40.1051 104.124 39.8254 103.61 39.1544 103.365Z" fill="white"/>
<path d="M32.0017 105.172C31.7766 105.056 31.5329 105.14 31.4209 105.359C31.3122 105.57 31.3862 105.817 31.6113 105.933C31.8298 106.045 32.0735 105.961 32.1822 105.749C32.2942 105.531 32.2202 105.284 32.0017 105.172ZM33.6072 101.421L32.0693 104.42L33.6713 105.242L33.8988 104.798L32.8197 104.245L34.1302 101.69L35.335 102.307L35.5625 101.864L32.6894 100.39L32.4619 100.834L33.6072 101.421Z" fill="white"/>
<path d="M28.8779 97.9028C27.9186 97.2495 26.7153 97.4831 26.062 98.4423C25.4087 99.4016 25.6196 100.598 26.585 101.256C27.5381 101.905 28.7434 101.682 29.4009 100.716C30.0626 99.745 29.8371 98.5562 28.8779 97.9028ZM28.5763 98.3456C29.2589 98.8104 29.3928 99.6578 28.9028 100.377C28.4254 101.078 27.5814 101.287 26.8927 100.817C26.204 100.348 26.0784 99.4887 26.5601 98.7816C27.0459 98.0683 27.8876 97.8765 28.5763 98.3456Z" fill="white"/>
<path d="M25.1619 95.274L24.7208 94.8856L23.1965 96.6164C22.7737 97.0966 22.1066 97.1337 21.6488 96.7305C21.2412 96.3715 21.1661 95.7701 21.5742 95.3067L23.1575 93.5088L22.7164 93.1204L21.1085 94.9462C20.5431 95.5882 20.5032 96.4553 21.1788 97.0502C21.6311 97.4485 22.1503 97.4893 22.5042 97.3351L22.5377 97.3646L22.164 97.7889L22.6051 98.1774L25.1619 95.274Z" fill="white"/>
<path d="M16.7967 86.4812L14.7364 83.4737L14.2577 83.8017L15.1154 85.0537L11.7765 87.3411L10.9188 86.089L10.44 86.4169L12.5003 89.4244L12.979 89.0964L12.1171 87.8382L15.456 85.5509L16.3179 86.8091L16.7967 86.4812Z" fill="white"/>
<path d="M13.3451 81.1286L13.0755 80.6063L11.0262 81.6643C10.4576 81.9577 9.82274 81.7496 9.5429 81.2076C9.29378 80.725 9.44259 80.1374 9.99129 79.8542L12.12 78.7553L11.8504 78.233L9.68864 79.349C8.92839 79.7414 8.57592 80.5346 8.98885 81.3345C9.26528 81.87 9.73405 82.0968 10.1198 82.0819L10.1403 82.1216L9.63788 82.3809L9.90748 82.9032L13.3451 81.1286Z" fill="white"/>
<path d="M10.1997 73.9993C9.88892 73.1545 9.22005 72.7584 8.53577 73.0101C7.03455 73.5623 8.60391 75.4583 7.68223 75.7973C7.36802 75.9128 7.03671 75.7018 6.86978 75.2479C6.69257 74.7661 6.82796 74.423 7.15213 74.2483L6.95694 73.7176C6.32114 74.0149 6.13558 74.7173 6.38213 75.3876C6.66207 76.1487 7.26296 76.5539 7.87741 76.3279C9.31579 75.7989 7.74202 73.9124 8.76145 73.5375C9.13152 73.4013 9.50729 73.604 9.70761 74.1486C9.9028 74.6793 9.78538 75.0713 9.37559 75.2933L9.57334 75.831C10.2275 75.519 10.5156 74.8582 10.1997 73.9993Z" fill="white"/>
<path d="M3.87868 69.1108C3.82141 68.8644 3.59982 68.7326 3.36068 68.7881C3.12879 68.842 2.98805 69.0581 3.04532 69.3045C3.1009 69.5436 3.32249 69.6754 3.55438 69.6215C3.79352 69.5659 3.93426 69.3499 3.87868 69.1108ZM7.77856 67.9141L4.49585 68.6771L4.90346 70.4307L5.38898 70.3179L5.11444 69.1367L7.91162 68.4865L8.21817 69.8054L8.70369 69.6926L7.97269 66.5475L7.48717 66.6604L7.77856 67.9141Z" fill="white"/>
<path d="M7.40985 62.031C7.32233 61.1949 6.71815 60.8542 6.56749 60.7727L6.56285 60.7283L7.16959 60.6648L7.11073 60.1025L1.56122 60.6834L1.62241 61.2679L3.9458 61.0247L3.95045 61.0691C3.76306 61.2084 3.29003 61.6918 3.37445 62.4983C3.48831 63.586 4.41393 64.282 5.59783 64.1581C6.77432 64.035 7.52835 63.1631 7.40985 62.031ZM6.88062 62.049C6.96504 62.8555 6.43781 63.4643 5.53509 63.5588C4.66197 63.6502 3.98311 63.1677 3.90023 62.3759C3.82046 61.6138 4.30605 60.9645 5.25316 60.8654C6.05969 60.781 6.7931 61.2129 6.88062 62.049Z" fill="white"/>
<path d="M7.1464 55.8171C7.16436 54.9096 6.66451 54.2225 5.94726 53.9926L5.93519 54.6025C6.3854 54.79 6.62115 55.2858 6.61099 55.799C6.59524 56.5949 6.07214 57.0831 5.29796 57.0976L5.36037 53.9437L5.10003 53.9386C3.98428 53.9165 3.1076 54.5986 3.08435 55.7739C3.06345 56.8301 3.84271 57.6864 5.07747 57.7108C6.23785 57.7338 7.123 56.9998 7.1464 55.8171ZM4.77758 57.0724C4.06467 56.9988 3.6071 56.4316 3.61991 55.7845C3.63286 55.1299 4.05271 54.595 4.82733 54.5582L4.77758 57.0724Z" fill="white"/>
<path d="M4.4541 48.1995L4.5469 47.5589L3.96523 47.4747L3.87136 48.1226C3.7903 48.6822 4.12613 49.1142 4.4341 49.2716L4.4277 49.3158L3.7135 49.2123L3.49271 50.7365L3.98602 50.8079L4.12362 49.8581L6.9657 50.2698L6.81317 51.3227L7.30649 51.3942L7.78328 48.103L7.28996 48.0315L7.04997 49.6882L5.57002 49.4738C4.84109 49.3682 4.35277 48.899 4.4541 48.1995Z" fill="white"/>
<path d="M8.62603 37.9624L9.35086 36.2091L8.84208 35.9988L8.11725 37.752L8.62603 37.9624Z" fill="white"/>
<path d="M15.6881 28.7126L16.0347 28.2473L12.9202 25.9274L12.9468 25.8916L16.6213 27.4597L17.1369 26.7675L14.5823 23.6959L14.6089 23.6601L17.7235 25.98L18.0701 25.5146L13.8935 22.4037L13.3869 23.0839L16.3614 26.7002L16.3347 26.736L12.0181 24.9216L11.5115 25.6018L15.6881 28.7126Z" fill="white"/>
<path d="M20.9278 22.4719C21.731 21.634 21.6998 20.4087 20.862 19.6055C20.0242 18.8024 18.8089 18.8123 18.0006 19.6555C17.2026 20.4879 17.2232 21.7135 18.0664 22.5218C18.915 23.3352 20.1247 23.3097 20.9278 22.4719ZM20.5412 22.1012C19.9697 22.6973 19.1118 22.6891 18.4835 22.0868C17.8712 21.4999 17.8055 20.633 18.3821 20.0315C18.9588 19.43 19.8274 19.4485 20.445 20.0405C21.068 20.6378 21.1178 21.4997 20.5412 22.1012Z" fill="white"/>
<path d="M25.9197 17.7925L26.5432 17.2858L26.2194 16.8874L25.6248 17.3707C25.2784 17.6522 25.0023 17.5602 24.7395 17.2369L23.3553 15.5337L24.562 14.553L24.2476 14.1662L23.0409 15.1469L22.3324 14.2751L21.9052 14.6223L22.4917 15.344C22.5715 15.4422 22.5502 15.5457 22.4694 15.6114L21.6668 16.2636L21.9812 16.6505L22.8992 15.9044L24.2881 17.6134C24.7808 18.2196 25.3654 18.243 25.9197 17.7925Z" fill="white"/>
<path d="M28.0377 10.7258C28.2522 10.5918 28.3051 10.3395 28.175 10.1313C28.0489 9.92935 27.7989 9.8662 27.5844 10.0002C27.3762 10.1303 27.3233 10.3826 27.4494 10.5845C27.5795 10.7928 27.8295 10.8559 28.0377 10.7258ZM30.4335 14.0275L28.648 11.1692L27.121 12.1231L27.3851 12.5458L28.4136 11.9033L29.935 14.3389L28.7866 15.0563L29.0507 15.4791L31.7892 13.7684L31.5251 13.3457L30.4335 14.0275Z" fill="white"/>
<path d="M35.8796 11.7724C36.9325 11.2841 37.3491 10.1313 36.8608 9.07845C36.3725 8.02558 35.2368 7.59279 34.1772 8.08426C33.1311 8.56946 32.7046 9.71862 33.196 10.7782C33.6906 11.8446 34.8268 12.2608 35.8796 11.7724ZM35.6542 11.2865C34.9051 11.634 34.109 11.3143 33.7427 10.5247C33.3858 9.75527 33.6399 8.92393 34.3958 8.57333C35.1517 8.22273 35.9541 8.55585 36.3141 9.33201C36.6773 10.1149 36.4101 10.9359 35.6542 11.2865Z" fill="white"/>
<path d="M40.0423 9.93084L40.602 9.75144L39.898 7.55518C39.7027 6.9459 40.013 6.35422 40.594 6.168C41.1112 6.00222 41.666 6.24626 41.8545 6.83429L42.5857 9.11556L43.1454 8.93615L42.4028 6.61946C42.1416 5.80472 41.4178 5.32579 40.5605 5.60058C39.9867 5.78454 39.6853 6.20927 39.6362 6.59221L39.5937 6.60584L39.4211 6.0674L38.8614 6.24681L40.0423 9.93084Z" fill="white"/>
<path d="M51.8811 7.25982L55.5196 7.0338L55.4836 6.45461L53.9688 6.54871L53.7179 2.50926L55.2327 2.41517L55.1967 1.83598L51.5582 2.062L51.5942 2.64119L53.1164 2.54663L53.3673 6.58608L51.8451 6.68064L51.8811 7.25982Z" fill="white"/>
<path d="M58.2463 7.04234L58.8329 7.07878L58.9759 4.77688C59.0155 4.13829 59.5198 3.70001 60.1287 3.73784C60.6708 3.77151 61.0988 4.20062 61.0605 4.81693L60.912 7.20793L61.4986 7.24437L61.6495 4.81625C61.7025 3.96232 61.2024 3.25293 60.3039 3.19712C59.7025 3.15975 59.2673 3.44579 59.0822 3.78464L59.0377 3.78187L59.0727 3.21754L58.4861 3.1811L58.2463 7.04234Z" fill="white"/>
<path d="M65.9797 7.99884C66.8643 8.16542 67.5474 7.79439 67.6823 7.07788C67.9783 5.50596 65.5458 5.88066 65.7275 4.91557C65.7894 4.58657 66.1406 4.41043 66.6158 4.49992C67.1203 4.59491 67.3454 4.88712 67.3291 5.25501L67.8847 5.35964C67.9557 4.66137 67.4479 4.1418 66.746 4.00963C65.949 3.85957 65.293 4.16755 65.1718 4.81094C64.8882 6.31707 67.3149 5.93368 67.1139 7.00112C67.0409 7.38862 66.6742 7.60725 66.1039 7.49987C65.5482 7.39524 65.272 7.09339 65.2915 6.6277L64.7286 6.52169C64.6608 7.24327 65.0804 7.8295 65.9797 7.99884Z" fill="white"/>
<path d="M73.4184 5.08008C73.6593 5.1573 73.8861 5.03468 73.961 4.80089C74.0337 4.57418 73.9204 4.34256 73.6795 4.26534C73.4457 4.1904 73.2189 4.31301 73.1463 4.53972C73.0713 4.77352 73.1846 5.00514 73.4184 5.08008ZM72.4454 9.0417L73.4741 5.83234L71.7596 5.28276L71.6075 5.75743L72.7623 6.12761L71.8857 8.86229L70.5963 8.44897L70.4441 8.92364L73.5189 9.90926L73.671 9.43458L72.4454 9.0417Z" fill="white"/>
<path d="M77.6847 11.7427C78.4474 12.0964 79.0497 11.7525 79.197 11.665L79.2375 11.6838L78.9808 12.2372L79.4937 12.4751L81.8415 7.41324L81.3083 7.16594L80.3254 9.28518L80.2849 9.26639C80.2614 9.03408 80.0891 8.38008 79.3534 8.03887C78.3613 7.57871 77.289 8.01629 76.7882 9.09616C76.2904 10.1693 76.6521 11.2637 77.6847 11.7427ZM77.9407 11.2792C77.2051 10.9379 76.9529 10.1731 77.3348 9.34972C77.7042 8.55332 78.4666 8.21803 79.1888 8.55298C79.8839 8.87541 80.1922 9.62528 79.7915 10.4892C79.4503 11.2248 78.7034 11.6329 77.9407 11.2792Z" fill="white"/>
<path d="M83.1541 14.7038C83.9239 15.1847 84.7701 15.108 85.3354 14.6102L84.818 14.287C84.4261 14.5773 83.8796 14.5254 83.4442 14.2534C82.7691 13.8317 82.6183 13.1322 83.003 12.4602L85.6784 14.1315L85.8163 13.9106C86.4075 12.9641 86.2716 11.8617 85.2747 11.2389C84.3787 10.6792 83.2439 10.909 82.5896 11.9564C81.9747 12.9407 82.1509 14.0771 83.1541 14.7038ZM83.2915 12.0264C83.7204 11.4522 84.4419 11.3503 84.9909 11.6932C85.5462 12.0401 85.79 12.6749 85.4242 13.3587L83.2915 12.0264Z" fill="white"/>
<path d="M91.0742 16.2998L91.5765 16.708L91.9472 16.2519L91.4391 15.839C91.0003 15.4824 90.4572 15.5491 90.1641 15.7327L90.1295 15.7046L90.5846 15.1446L89.3895 14.1733L89.0751 14.5601L89.8199 15.1654L88.0087 17.394L87.1831 16.723L86.8688 17.1098L89.4495 19.2072L89.7639 18.8204L88.4648 17.7646L89.408 16.6042C89.8725 16.0326 90.5257 15.854 91.0742 16.2998Z" fill="white"/>
<path d="M97.7224 25.1319L98.8556 26.6534L99.2971 26.3245L98.1639 24.803L97.7224 25.1319Z" fill="white"/>
<path d="M102.04 35.9386L102.262 36.4749L105.851 34.9911L105.868 35.0323L102.637 37.3824L102.967 38.18L106.914 37.5625L106.931 37.6037L103.342 39.0875L103.564 39.6238L108.377 37.6341L108.053 36.8503L103.423 37.5488L103.406 37.5076L107.177 34.7327L106.853 33.9489L102.04 35.9386Z" fill="white"/>
<path d="M104.71 43.6376C105.018 44.7568 106.085 45.3586 107.205 45.0513C108.324 44.744 108.939 43.6957 108.629 42.5693C108.324 41.4573 107.261 40.8464 106.135 41.1556C105.001 41.4669 104.403 42.5184 104.71 43.6376ZM105.227 43.4958C105.008 42.6994 105.455 41.9672 106.295 41.7368C107.112 41.5122 107.89 41.9004 108.111 42.704C108.331 43.5075 107.87 44.2436 107.045 44.4702C106.213 44.6986 105.447 44.2993 105.227 43.4958Z" fill="white"/>
<path d="M106.167 50.3229L106.282 51.1181L106.79 51.0445L106.68 50.2861C106.616 49.8443 106.837 49.6545 107.249 49.5948L109.421 49.2801L109.644 50.819L110.137 50.7475L109.914 49.2087L111.026 49.0476L110.947 48.5027L110.027 48.6361C109.902 48.6542 109.824 48.5828 109.809 48.4797L109.661 47.4563L109.167 47.5277L109.337 48.6984L107.157 49.0142C106.384 49.1262 106.064 49.616 106.167 50.3229Z" fill="white"/>
<path d="M111.147 55.7657C111.152 56.0186 111.341 56.1934 111.587 56.1886C111.825 56.1839 112.007 56.0017 112.002 55.7487C111.997 55.5033 111.808 55.3284 111.57 55.3332C111.324 55.338 111.142 55.5202 111.147 55.7657ZM107.084 56.1288L110.453 56.0622L110.417 54.2621L109.919 54.272L109.943 55.4844L107.072 55.5412L107.045 54.1874L106.547 54.1973L106.611 57.4255L107.109 57.4157L107.084 56.1288Z" fill="white"/>
<path d="M106.226 61.9607C106.105 63.115 106.881 64.064 108.035 64.1848C109.19 64.3056 110.144 63.5527 110.265 62.391C110.385 61.2441 109.618 60.2885 108.456 60.1669C107.287 60.0446 106.347 60.8064 106.226 61.9607ZM106.759 62.0165C106.845 61.1952 107.527 60.6757 108.393 60.7663C109.237 60.8546 109.82 61.4991 109.733 62.3279C109.647 63.1566 108.949 63.6745 108.098 63.5854C107.24 63.4956 106.672 62.8452 106.759 62.0165Z" fill="white"/>
<path d="M105.672 66.4787L105.539 67.0512L107.785 67.5733C108.408 67.7182 108.757 68.2881 108.619 68.8823C108.496 69.4113 108.002 69.7624 107.4 69.6226L105.067 69.0802L104.934 69.6527L107.304 70.2035C108.137 70.3972 108.919 70.0215 109.123 69.1446C109.26 68.5577 109.05 68.0811 108.746 67.8425L108.756 67.799L109.307 67.927L109.44 67.3546L105.672 66.4787Z" fill="white"/>
<path d="M101.892 78.0116L100.22 81.2509L100.736 81.5171L101.432 80.1685L105.028 82.025L104.332 83.3736L104.848 83.6398L106.52 80.4004L106.004 80.1342L105.305 81.4895L101.708 79.633L102.408 78.2778L101.892 78.0116Z" fill="white"/>
<path d="M98.8143 83.5873L98.4821 84.0721L100.385 85.3756C100.913 85.7372 101.03 86.3949 100.685 86.8982C100.379 87.3462 99.7906 87.4936 99.2812 87.1446L97.3048 85.7907L96.9727 86.2756L98.9797 87.6505C99.6855 88.134 100.551 88.0686 101.06 87.3259C101.4 86.8288 101.378 86.3085 101.182 85.9758L101.207 85.939L101.674 86.2585L102.006 85.7737L98.8143 83.5873Z" fill="white"/>
<path d="M94.0266 89.7353C93.4298 90.4093 93.398 91.1859 93.9438 91.6693C95.1414 92.7296 96.0675 90.4492 96.8027 91.1002C97.0534 91.3222 97.0245 91.714 96.7039 92.076C96.3636 92.4604 95.9973 92.5037 95.6898 92.301L95.315 92.7244C95.8781 93.1434 96.5845 92.974 97.058 92.4392C97.5956 91.8321 97.6677 91.1109 97.1775 90.6769C96.0301 89.6609 95.1146 91.9407 94.3013 91.2206C94.0061 90.9593 94.0065 90.5323 94.3912 90.0979C94.766 89.6745 95.1668 89.5922 95.5566 89.8478L95.9363 89.4189C95.3516 88.9907 94.6332 89.0501 94.0266 89.7353Z" fill="white"/>
<path d="M92.7167 97.618C92.5269 97.7852 92.5158 98.0428 92.678 98.227C92.8354 98.4057 93.0923 98.4273 93.2821 98.2601C93.4664 98.0978 93.4775 97.8403 93.3201 97.6616C93.1579 97.4773 92.9009 97.4558 92.7167 97.618ZM89.815 94.7508L92.0423 97.28L93.3935 96.0901L93.0641 95.716L92.154 96.5175L90.256 94.3623L91.2722 93.4674L90.9428 93.0934L88.5196 95.2273L88.849 95.6014L89.815 94.7508Z" fill="white"/>
<path d="M84.809 97.8631C84.1142 98.3363 84.1004 99.0298 84.1001 99.2011L84.0632 99.2262L83.7198 98.722L83.2524 99.0403L86.3935 103.652L86.8793 103.321L85.5642 101.39L85.6011 101.365C85.8126 101.464 86.4624 101.652 87.1326 101.195C88.0365 100.58 88.2109 99.4347 87.5408 98.4508C86.8749 97.4732 85.7498 97.2223 84.809 97.8631ZM85.0756 98.3206C85.7459 97.8641 86.5318 98.0399 87.0427 98.7901C87.5369 99.5157 87.4337 100.342 86.7757 100.79C86.1424 101.222 85.3406 101.102 84.8045 100.315C84.348 99.6443 84.3808 98.7938 85.0756 98.3206Z" fill="white"/>
<path d="M79.4617 101.039C78.6541 101.454 78.2859 102.219 78.4232 102.96L78.9661 102.682C78.9179 102.196 79.2428 101.754 79.6996 101.519C80.4079 101.156 81.0857 101.386 81.4652 102.06L78.6583 103.5L78.7772 103.732C79.2864 104.725 80.3025 105.173 81.3485 104.637C82.2885 104.155 82.6733 103.063 82.1098 101.964C81.5801 100.931 80.5143 100.5 79.4617 101.039ZM81.6896 102.531C81.9626 103.193 81.68 103.865 81.104 104.16C80.5215 104.459 79.8515 104.343 79.4521 103.678L81.6896 102.531Z" fill="white"/>
<path d="M74.0293 107.02L73.4212 107.242L73.6226 107.794L74.2377 107.569C74.7689 107.376 74.9902 106.875 74.9829 106.529L75.0248 106.514L75.2721 107.192L76.7189 106.664L76.5481 106.196L75.6465 106.525L74.6624 103.827L75.6618 103.462L75.491 102.994L72.3668 104.134L72.5376 104.602L74.1102 104.028L74.6227 105.433C74.8751 106.125 74.6933 106.778 74.0293 107.02Z" fill="white"/>
<path d="M63.0376 108.197L61.1502 108.389L61.2061 108.937L63.0934 108.744L63.0376 108.197Z" fill="white"/>
<path d="M41.6577 42.923H36.5304V57.1897V71.4563H41.6577V42.923Z" fill="#F9F9F9"/>
<path d="M52.8831 42.923H47.5069V57.1897V71.4563H52.6591L52.6715 55.0315C53.015 55.8118 53.1643 56.1444 53.2241 56.2694L53.2403 56.3055C53.2904 56.4171 53.3311 56.5077 53.3311 56.5145C53.3311 56.522 53.3884 56.6545 53.458 56.807C53.5277 56.9621 53.6173 57.1596 53.6572 57.2447C53.697 57.3322 53.7293 57.4072 53.7293 57.4147C53.7293 57.4222 53.7741 57.5223 53.8289 57.6398C53.8837 57.7573 53.9285 57.8574 53.9285 57.8649C53.9285 57.8724 53.9608 57.9474 54.0006 58.0324C54.0405 58.1199 54.1027 58.2575 54.14 58.34C54.1774 58.4225 54.252 58.5876 54.3043 58.7076C54.3591 58.8301 54.4437 59.0252 54.4984 59.1452C54.5473 59.2598 54.7117 59.6283 54.8733 59.9907L54.9066 60.0655C55.0759 60.4506 55.2924 60.9332 55.382 61.1408C55.4741 61.3459 55.5712 61.5609 55.5961 61.6159C55.621 61.671 55.7081 61.8685 55.7902 62.0536C55.8724 62.2386 55.9744 62.4662 56.0167 62.5587C56.059 62.6537 56.0939 62.7338 56.0939 62.7413C56.0939 62.7488 56.1387 62.8488 56.1934 62.9663C56.2482 63.0839 56.293 63.1839 56.293 63.1914C56.293 63.1989 56.3428 63.3114 56.405 63.4415C56.4672 63.5715 56.517 63.684 56.517 63.6915C56.517 63.699 56.5494 63.7741 56.5892 63.8591C56.629 63.9466 56.7336 64.1792 56.8232 64.3792C56.9128 64.5793 57.0994 64.9994 57.2388 65.317C57.3782 65.6346 57.5475 66.0172 57.6172 66.1673C57.6868 66.3173 57.7814 66.5149 57.8312 66.6049C57.881 66.6949 57.9756 66.8625 58.0453 66.98C58.1125 67.0975 58.2494 67.3101 58.3464 67.4551C58.446 67.6002 58.5679 67.7752 58.6227 67.8452C58.675 67.9153 58.787 68.0553 58.8666 68.1578C58.9488 68.2604 59.2101 68.5404 59.4515 68.7805C59.693 69.0231 60.0116 69.3182 60.1634 69.4407C60.3152 69.5607 60.5367 69.7283 60.6612 69.8133C60.7832 69.8983 60.9748 70.0234 61.0843 70.0909C61.1938 70.1559 61.3457 70.2484 61.4203 70.2935C61.495 70.3385 61.714 70.451 61.9057 70.5435C62.0973 70.6361 62.3761 70.7611 62.5279 70.8186C62.6798 70.8786 62.9635 70.9761 63.1626 71.0412C63.3618 71.1037 63.7027 71.1937 63.9218 71.2412C64.1408 71.2887 64.4494 71.3463 64.6062 71.3663C64.7631 71.3888 65.0543 71.4163 65.2534 71.4313C65.4824 71.4463 68.4094 71.4563 73.2928 71.4563C78.1862 71.4563 81.0933 71.4463 81.3074 71.4313C81.4916 71.4163 81.7654 71.3888 81.9172 71.3663C82.069 71.3438 82.3478 71.2862 82.5395 71.2412C82.7311 71.1937 83.0099 71.1137 83.1617 71.0637C83.3135 71.0137 83.5649 70.9186 83.7217 70.8511C83.8785 70.7836 84.1473 70.6536 84.3191 70.5635C84.4908 70.4735 84.782 70.2985 84.9662 70.1759C85.1504 70.0509 85.4093 69.8633 85.5387 69.7608C85.6681 69.6558 85.9494 69.3957 86.1609 69.1806C86.3725 68.9681 86.6363 68.6755 86.7483 68.5304C86.8603 68.3854 86.9923 68.2053 87.0445 68.1303C87.0968 68.0553 87.2113 67.8752 87.2984 67.7302C87.388 67.5852 87.5299 67.3226 87.6145 67.1425C87.7016 66.9625 87.8161 66.7099 87.8659 66.5799C87.9182 66.4498 87.9953 66.2348 88.0352 66.1047C88.075 65.9747 88.1322 65.7671 88.1646 65.6421C88.1944 65.5171 88.2392 65.3095 88.2616 65.1795C88.2865 65.0494 88.3139 64.8794 88.3264 64.8044C88.3388 64.7293 88.3612 64.4993 88.3761 64.2917C88.3911 64.0491 88.401 60.2355 88.401 53.4336V42.948H83.2488L83.2364 64.1917C83.1443 64.5218 83.0771 64.7068 83.0248 64.8169C82.975 64.9269 82.8879 65.0844 82.8332 65.167C82.7784 65.2495 82.6564 65.3995 82.5619 65.5021C82.4673 65.6021 82.3055 65.7446 82.2034 65.8197C82.1014 65.8922 81.9222 65.9947 81.8052 66.0497C81.6882 66.1047 81.5264 66.1673 81.4443 66.1898C81.3622 66.2098 81.1829 66.2448 81.0461 66.2673C80.827 66.2998 79.8812 66.3048 73.3053 66.3048C66.7493 66.3048 65.7736 66.2998 65.4898 66.2673C65.3106 66.2448 65.0642 66.2048 64.9423 66.1748C64.8203 66.1472 64.6162 66.0847 64.4942 66.0372C64.3723 65.9897 64.1806 65.9047 64.0711 65.8497C63.9616 65.7946 63.7874 65.6896 63.6828 65.6196C63.5783 65.5496 63.3991 65.412 63.2871 65.317C63.1751 65.222 63.0183 65.0694 62.9411 64.9794C62.8615 64.8894 62.747 64.7493 62.6847 64.6668C62.625 64.5843 62.523 64.4318 62.4632 64.3292C62.401 64.2267 62.294 64.0166 62.2243 63.8666C62.1546 63.7165 62.0127 63.394 61.9057 63.1539C61.7987 62.9138 61.6692 62.6237 61.617 62.5112C61.5622 62.3962 61.5199 62.2986 61.5199 62.2911C61.5199 62.2836 61.4875 62.2086 61.4477 62.1236C61.4079 62.0361 61.3457 61.8985 61.3083 61.816C61.2755 61.7435 61.2158 61.6092 61.1664 61.498L61.1465 61.4534L60.8404 60.7657C60.7259 60.5031 60.5542 60.123 60.4621 59.9154C60.3725 59.7104 60.263 59.4703 60.2231 59.3853C60.1833 59.2978 60.1509 59.2227 60.1509 59.2152C60.1509 59.2077 60.1136 59.1202 60.0663 59.0227C60.019 58.9227 59.9045 58.6726 59.8149 58.465C59.7228 58.26 59.5138 57.7898 59.352 57.4197C59.1877 57.0521 59.0458 56.732 59.0309 56.7095C59.0185 56.6845 58.9413 56.512 58.8592 56.3269C58.7795 56.1419 58.6849 55.9268 58.6501 55.8518C58.6152 55.7767 58.558 55.6467 58.5207 55.5642C58.4878 55.4916 58.4281 55.3573 58.3786 55.246L58.3589 55.2016L58.0527 54.5139C57.9357 54.2513 57.8163 53.9837 57.7864 53.9137C57.7565 53.8462 57.6868 53.6886 57.6321 53.5636C57.5748 53.4386 57.4927 53.256 57.4479 53.1585C57.4006 53.0585 57.3633 52.9709 57.3633 52.9634C57.3633 52.9559 57.3135 52.8434 57.2513 52.7134C57.189 52.5833 57.1393 52.4708 57.1393 52.4633C57.1393 52.4558 57.1069 52.3808 57.0671 52.2957C57.0273 52.2082 56.965 52.0707 56.9277 51.9882C56.8949 51.9156 56.8351 51.7813 56.7857 51.67L56.7659 51.6255L56.4598 50.9378C56.3453 50.6753 56.1735 50.2952 56.0814 50.0876C55.9918 49.88 55.8823 49.6425 55.8425 49.5574C55.8027 49.4699 55.7703 49.3949 55.7703 49.3874C55.7703 49.3799 55.733 49.2924 55.6857 49.1948C55.6384 49.0948 55.5239 48.8447 55.4318 48.6372C55.3422 48.4321 55.2252 48.167 55.173 48.0495L54.8668 47.3618C54.7523 47.0992 54.5831 46.7241 54.4935 46.5241C54.4064 46.324 54.2968 46.0864 54.2545 45.9939C54.2122 45.8989 54.1774 45.8189 54.1774 45.8114C54.1774 45.8039 54.14 45.7163 54.0927 45.6188C54.0454 45.5188 53.931 45.2687 53.8389 45.0611C53.7493 44.8561 53.6323 44.591 53.58 44.4735C53.5277 44.3559 53.3908 44.0459 53.2739 43.7858C53.1569 43.5257 53.0225 43.2231 52.9727 43.1181L52.8831 42.923Z" fill="#F9F9F9"/>
<path d="M27.8562 64.7168C27.5924 64.6668 27.4455 64.6543 27.1792 64.6568C26.9726 64.6593 26.7362 64.6768 26.5868 64.7043C26.4499 64.7293 26.2608 64.7719 26.1637 64.7994C26.0691 64.8269 25.8999 64.8844 25.7904 64.9294C25.6808 64.9719 25.5191 65.0494 25.4295 65.0994C25.3399 65.1495 25.1781 65.252 25.0686 65.327C24.959 65.402 24.74 65.5946 24.5807 65.7546C24.399 65.9372 24.2372 66.1297 24.1377 66.2798C24.0506 66.4098 23.9261 66.6299 23.8614 66.7674C23.7942 66.905 23.7145 67.1075 23.6797 67.2176C23.6448 67.3276 23.5926 67.5352 23.5627 67.6802C23.5154 67.8928 23.5055 68.0228 23.5055 68.3679C23.5055 68.713 23.5154 68.843 23.5627 69.0556C23.5926 69.2006 23.6448 69.4082 23.6797 69.5182C23.7145 69.6283 23.7967 69.8308 23.8614 69.9684C23.9286 70.1059 24.0381 70.3035 24.1053 70.406C24.1725 70.5085 24.3069 70.6836 24.4015 70.7936C24.4961 70.9036 24.6628 71.0712 24.7724 71.1662C24.8794 71.2612 25.0586 71.3963 25.1681 71.4688C25.2776 71.5413 25.4469 71.6388 25.5415 71.6864C25.6385 71.7364 25.8103 71.8089 25.9273 71.8514C26.0442 71.8939 26.2334 71.9514 26.3504 71.9789C26.4674 72.0089 26.7088 72.044 26.8855 72.059C27.1245 72.079 27.2887 72.079 27.5202 72.059C27.692 72.044 27.9259 72.0089 28.0429 71.9789C28.1599 71.9514 28.349 71.8939 28.466 71.8514C28.583 71.8089 28.7572 71.7364 28.8518 71.6864C28.9489 71.6388 29.1157 71.5388 29.2252 71.4663C29.3347 71.3913 29.4965 71.2712 29.5836 71.1987C29.6732 71.1287 29.835 70.9686 29.942 70.8436C30.0515 70.7211 30.1934 70.541 30.2581 70.4435C30.3228 70.3485 30.4323 70.1559 30.4995 70.0184C30.5692 69.8808 30.6638 69.6458 30.7136 69.4932C30.7609 69.3432 30.8206 69.0956 30.843 68.9431C30.8779 68.7255 30.8828 68.578 30.8729 68.2304C30.8629 67.9778 30.8405 67.7177 30.8181 67.6177C30.7982 67.5226 30.7509 67.3526 30.7161 67.2426C30.6812 67.1325 30.6066 66.9425 30.5493 66.8174C30.4946 66.6949 30.3925 66.5024 30.3253 66.3923C30.2556 66.2823 30.1411 66.1197 30.0714 66.0297C29.9992 65.9397 29.8549 65.7846 29.7503 65.6871C29.6458 65.5871 29.479 65.4445 29.382 65.372C29.2824 65.2995 29.1605 65.2145 29.1132 65.187C29.0659 65.157 28.9414 65.0919 28.8394 65.0394C28.7373 64.9894 28.5482 64.9094 28.4237 64.8644C28.2968 64.8169 28.0404 64.7518 27.8562 64.7168Z" fill="#FF0048"/>
<defs>
<filter id="filter0_b_1196_536" x="-7.82206" y="-7.31106" width="129.87" height="129.87" filterUnits="userSpaceOnUse" color-interpolation-filters="sRGB">
<feFlood flood-opacity="0" result="BackgroundImageFix"/>
<feGaussianBlur in="BackgroundImageFix" stdDeviation="11.5562"/>
<feComposite in2="SourceAlpha" operator="in" result="effect1_backgroundBlur_1196_536"/>
<feBlend mode="normal" in="SourceGraphic" in2="effect1_backgroundBlur_1196_536" result="shape"/>
</filter>
<radialGradient id="paint0_radial_1196_536" cx="0" cy="0" r="1" gradientUnits="userSpaceOnUse" gradientTransform="translate(16.5831 18.8075) rotate(44.0741) scale(112.097 179.284)">
<stop stop-color="#D9D9D9" stop-opacity="0.33"/>
<stop offset="1" stop-color="white" stop-opacity="0"/>
</radialGradient>
<radialGradient id="paint1_radial_1196_536" cx="0" cy="0" r="1" gradientUnits="userSpaceOnUse" gradientTransform="translate(16.5831 18.8075) rotate(44.0741) scale(112.097 179.284)">
<stop stop-color="#D8D8D8" stop-opacity="0"/>
<stop offset="1" stop-color="#D8D8D8"/>
</radialGradient>
</defs>
</svg>
