<svg width="137" height="33" viewBox="0 0 137 33" fill="none" xmlns="http://www.w3.org/2000/svg">
<path d="M135.854 28.9292C130.357 24.6422 123.468 27.8166 117.855 30.0583C112.39 32.2345 107.072 32.8399 101.231 32.2509C96.0113 31.7272 90.3008 31.1218 85.4411 29.0765C82.6267 27.882 80.0414 26.3603 77.0307 25.6567C73.9545 24.9368 70.7147 24.724 67.5731 24.5604C63.9897 24.3968 61.1262 25.084 57.9846 26.8512C55.7102 28.1275 53.4521 29.2238 50.9323 29.911C46.2853 31.1873 41.2456 31.1382 36.7459 29.2892C33.8333 28.0947 31.608 26.6385 28.5646 28.5365C26.7974 29.6328 25.3084 31.1873 23.2958 31.8745C19.7288 33.0853 16.2762 31.3018 13.2001 29.6001C11.3184 28.5529 9.43666 27.3584 7.35861 26.7366C4.26607 25.8203 1.59897 26.6876 -1.36267 27.6039C-3.29346 28.1929 -5.33881 28.8147 -7.36777 28.3893C-8.13681 28.2256 -8.59496 27.8984 -9.31491 27.6857C-10.4603 27.3421 -12.3093 26.6876 -13.5528 27.0639C-14.2237 27.2603 -14.9927 28.0293 -15.5982 28.4056C-19.5906 30.9746 -24.4012 32.169 -29.1301 31.76C-34.1043 31.3345 -38.1295 28.9783 -42.2856 26.4094C-44.74 24.8877 -47.2599 23.3987 -50.0742 22.6951C-53.085 21.9424 -56.2429 22.1551 -59.2537 21.337C-63.4261 20.1916 -66.9605 17.5736 -70.2166 14.8247C-74.2582 11.4212 -78.0707 7.67418 -82.8977 5.41614C-85.532 4.18894 -88.3628 3.38717 -91.1935 2.73267C-94.3351 2.02907 -99.2603 0.310997 -102.206 1.97999C-105.004 3.56716 -107.491 7.10149 -109.52 9.53952C-111.827 12.3048 -113.954 15.2174 -115.885 18.2608C-117.096 20.1589 -118.11 22.286 -120.139 23.4314C-122.528 24.7731 -125.686 25.0186 -128.288 25.8367C-137.974 28.8965 -150.295 34.0671 -158.788 25.4767C-159.377 24.8877 -158.46 23.9714 -157.871 24.5604C-148.577 33.9526 -134.653 25.9512 -124.262 23.3659C-122.512 22.9242 -120.761 22.6296 -119.435 21.2715C-118.437 20.257 -117.75 18.7844 -116.997 17.6063C-115.508 15.2828 -113.921 13.0411 -112.236 10.8813C-110.469 8.60685 -108.571 6.41426 -106.591 4.31984C-105.265 2.92902 -103.793 1.14549 -101.944 0.39281C-99.9639 -0.408959 -97.7877 0.163733 -95.7914 0.523711C-92.8625 1.04731 -89.9172 1.62001 -87.0701 2.48723C-82.4559 3.89441 -78.4634 6.20154 -74.7327 9.24499C-70.9038 12.3866 -67.3859 16.0518 -62.9843 18.4244C-57.8137 21.2061 -51.9068 20.208 -46.6381 22.5151C-41.5984 24.724 -37.4586 28.7329 -31.9935 29.9928C-25.3994 31.5309 -20.1961 29.4365 -14.6164 26.1967C-13.1438 25.3458 -11.9166 25.1331 -10.3294 25.7222C-8.85675 26.2785 -8.13681 27.0966 -6.33691 27.2275C-4.7661 27.3421 -3.17894 26.8185 -1.7063 26.3603C2.48253 25.0677 5.67326 24.4459 9.76392 26.2949C13.9527 28.1929 18.7306 32.5781 23.5903 30.3364C27.1247 28.7002 29.4482 24.9858 33.7515 26.4585C36.255 27.3093 38.4149 28.7165 41.0656 29.191C44.3872 29.7801 47.8561 29.4528 51.0959 28.5038C56.152 27.0148 60.0135 23.3496 65.4623 23.2023C70.9601 23.0551 77.1289 23.7259 82.1522 26.0331C88.9918 29.191 96.0604 30.68 103.62 31.1218C107.269 31.3345 110.885 31.0564 114.387 29.9437C117.43 28.9783 120.293 27.5057 123.337 26.5403C127.918 25.0677 132.876 24.9204 136.803 27.9966C137.425 28.5202 136.509 29.4365 135.854 28.9292Z" fill="#FC0147"/>
</svg>
