<svg width="326" height="23" viewBox="0 0 326 23" fill="none" xmlns="http://www.w3.org/2000/svg">
<g clip-path="url(#clip0_1196_609)">
<path d="M192.387 16.2791C192.387 17.2847 191.57 18.101 190.565 18.101H179.764C178.603 18.101 177.557 17.4025 177.094 16.3085L170.345 1.23493H166.46V21.812H170.171V9.8941L173.695 17.7875C174.73 20.2321 177.113 21.812 179.766 21.812H190.567C193.617 21.812 196.1 19.3296 196.1 16.2791V1.24966H192.389V16.2791H192.387Z" fill="#F9F9F9"/>
<path d="M162.197 1.22678H158.486V21.8123H162.197V1.22678Z" fill="#F9F9F9"/>
<path d="M224.718 1.22652H221.007V21.812H224.718V1.22652Z" fill="#F9F9F9"/>
<path d="M213.652 10.9796L204.351 7.29803C203.894 7.1171 203.6 6.68372 203.6 6.19144C203.6 5.53506 204.134 5.0007 204.791 5.0007H214.781V1.28963H204.791C202.087 1.28963 199.889 3.48808 199.889 6.19144C199.889 8.21528 201.105 10.0035 202.986 10.7482L212.286 14.4299C212.743 14.6108 213.04 15.0463 213.04 15.5364V16.9081C213.04 17.5645 212.505 18.0988 211.849 18.0988H201.082V21.8099H211.849C214.552 21.8099 216.751 19.6115 216.751 16.9081V15.5364C216.746 13.5126 215.53 11.7244 213.652 10.9796Z" fill="#F9F9F9"/>
<path d="M272.804 7.15077V15.8878C272.804 19.1549 275.461 21.812 278.728 21.812H287.68V18.1031H278.728C277.508 18.1031 276.515 17.1101 276.515 15.8878V13.4411H287.682V9.73001H276.515V7.15077C276.515 5.93057 277.508 4.93759 278.728 4.93759H287.68V1.22652H278.728C275.461 1.22652 272.804 3.88359 272.804 7.15077Z" fill="#F9F9F9"/>
<path d="M316.987 7.81344C316.731 4.06029 313.449 1.2244 309.687 1.2244H296.976L291.944 1.24123V15.3955V21.8099H295.52V15.3955H308.802L312.176 21.8078H316.373L312.698 14.8253C315.37 13.683 317.202 10.9439 316.987 7.81344ZM295.518 4.80083H309.767C311.566 4.80083 313.186 6.08834 313.4 7.87656C313.657 10.0056 311.995 11.8211 309.917 11.8211H295.516V4.80083H295.518Z" fill="#F9F9F9"/>
<path d="M258.946 1.2286H231.113V1.2244H228.978V2.98737V20.0596V21.8078H230.728L230.737 21.8183H258.944C264.62 21.8183 269.238 17.2005 269.238 11.5245C269.238 5.84851 264.624 1.2286 258.946 1.2286ZM258.946 18.122H232.674V4.92495H258.946C262.586 4.92495 265.546 7.88497 265.546 11.5245C265.546 15.1641 262.586 18.122 258.946 18.122Z" fill="#F9F9F9"/>
<path d="M323.339 22.2601C324.809 22.2601 326 21.0686 326 19.5988C326 18.1291 324.809 16.9376 323.339 16.9376C321.869 16.9376 320.677 18.1291 320.677 19.5988C320.677 21.0686 321.869 22.2601 323.339 22.2601Z" fill="#FF0048"/>
<path d="M18.284 1.18653L13.5862 14.413C13.3864 14.9789 12.8457 15.3597 12.244 15.3597C11.4593 15.3597 10.8198 14.7223 10.8198 13.9355V5.41093C10.8219 2.42776 8.39409 0 5.41093 0C2.42776 0 0 2.42776 0 5.41093V21.8183H3.71528V5.41093C3.71528 4.47475 4.47685 3.71528 5.41093 3.71528C6.34711 3.71528 7.10658 4.47685 7.10658 5.41093V13.9355C7.10658 16.7692 9.41232 19.0729 12.2461 19.0729C14.4172 19.0729 16.3611 17.6991 17.0869 15.6563L18.1598 12.6353V21.8183H21.8751V1.30435L21.3302 1.21388L18.284 1.18653Z" fill="#F9F9F9"/>
<path d="M139.828 16.1276C139.828 17.2174 138.942 18.164 137.852 18.164L115.458 18.103C114.296 18.103 113.249 17.4025 112.786 16.3106L106.029 1.2244H102.139V21.8183H105.854V9.88987L109.38 17.7896C110.415 20.2363 112.801 21.8162 115.458 21.8162H137.852C140.989 21.8162 143.543 19.2643 143.543 16.1255V1.24123H139.828V16.1276Z" fill="#F9F9F9"/>
<path d="M36.4585 0.706871C30.4985 0.706871 25.6493 5.55609 25.6493 11.514C25.6493 17.474 30.4985 22.3232 36.4585 22.3232C42.4185 22.3232 47.2678 17.474 47.2678 11.514C47.2678 5.55399 42.4185 0.706871 36.4585 0.706871ZM36.4585 18.9151C32.3772 18.9151 29.0574 15.5953 29.0574 11.514C29.0574 7.43477 32.3772 4.115 36.4585 4.115C40.5399 4.115 43.8596 7.43477 43.8596 11.514C43.8596 15.5953 40.5399 18.9151 36.4585 18.9151Z" fill="#F9F9F9"/>
<path d="M87.0041 0.706871C81.044 0.706871 76.1948 5.55609 76.1948 11.514C76.1948 17.474 81.044 22.3232 87.0041 22.3232C92.9641 22.3232 97.8133 17.474 97.8133 11.514C97.8133 5.55399 92.9641 0.706871 87.0041 0.706871ZM87.0041 18.9151C82.9227 18.9151 79.603 15.5953 79.603 11.514C79.603 7.43477 82.9227 4.115 87.0041 4.115C91.0854 4.115 94.4052 7.43477 94.4052 11.514C94.4052 15.5953 91.0854 18.9151 87.0041 18.9151Z" fill="#F9F9F9"/>
<path d="M72.3595 1.21179H68.6464V21.8183H72.3595V1.21179Z" fill="#F9F9F9"/>
<path d="M49.0118 4.92497H54.8435V21.8183H58.5567V4.92497H64.3884V1.21179H49.0118V4.92497Z" fill="#F9F9F9"/>
</g>
<defs>
<clipPath id="clip0_1196_609">
<rect width="326" height="22.3232" fill="white"/>
</clipPath>
</defs>
</svg>
