<svg width="68" height="115" viewBox="0 0 68 115" fill="none" xmlns="http://www.w3.org/2000/svg">
<g clip-path="url(#clip0_1196_600)">
<path d="M54.7816 21.0458L46.1342 12.3965L16.2037 42.327V0H3.97437V42.327L-25.9542 12.3965L-34.6035 21.0458L-4.67299 50.9763H-47V63.2056H-4.67299L-34.6035 93.1342L-25.9542 101.783L3.97437 71.853V114.18H16.2037V71.853L46.1342 101.783L54.7816 93.1342L24.853 63.2056H67.18V50.9763H24.853L54.7816 21.0458Z" fill="#242323"/>
</g>
<path d="M-14.0902 54.5807C-17.8946 58.3843 -19 59.4921 -19 59.5C-19 59.5079 -17.8946 60.6184 -16.5438 61.9662L-14.0902 64.4193C-10.3122 60.6157 -9.21463 59.5079 -9.21463 59.5C-9.21463 59.4921 -10.3122 58.3843 -11.6524 57.0338L-14.0902 54.5807Z" fill="#FF0048"/>
<path d="M-10.663 72.7147V79.6518H-7.19371H-3.72437V72.7147H-10.663Z" fill="#FF0048"/>
<path d="M-10.663 39.3482L-10.663 46.2853H-7.19371H-3.72437L-3.72437 39.3482H-10.663Z" fill="#FF0048"/>
<path d="M9.4934 78.2011C5.68901 81.9729 4.58357 83.0728 4.58621 83.0807C4.58621 83.0887 5.68901 84.1991 7.0398 85.547L9.4934 88C13.2978 84.1991 14.4006 83.0887 14.4006 83.0807C14.4032 83.0728 13.2978 81.9729 11.947 80.6356L9.4934 78.2011Z" fill="#FF0048"/>
<path d="M9.4934 31C5.68901 34.8035 4.58621 35.914 4.58621 35.9219C4.58621 35.9324 5.68901 37.0323 7.0398 38.3696L9.4934 40.7989C13.2978 37.0271 14.4032 35.9272 14.4006 35.9193C14.4006 35.9113 13.2978 34.8035 11.947 33.453L9.4934 31Z" fill="#FF0048"/>
<path d="M22.7112 72.7147V79.6518H26.1805H29.6498V72.7147H22.7112Z" fill="#FF0048"/>
<path d="M22.7112 39.3482V46.2853H26.1805H29.6498V39.3482H22.7112Z" fill="#FF0048"/>
<path d="M33.077 54.5807C29.2963 58.3632 28.1988 59.4736 28.1988 59.4868C28.2014 59.5026 29.299 60.6157 30.6392 61.9662L33.077 64.4193L38 59.5L33.077 54.5807Z" fill="#FF0048"/>
<path d="M-9.47828 58.2181L-8.19871 59.5C-10.1827 61.4862 -10.7447 62.0585 -10.7315 62.0559C-10.7183 62.0533 -7.32808 62.0533 -3.19918 62.0559L4.30673 62.0585L-6.35192 72.7147H-2.72429V76.3415L7.93436 65.6853C7.93963 77.3174 7.93964 80.7068 7.937 80.72C7.93436 80.7332 8.50686 80.1714 9.21129 79.4671L10.4935 78.1879C12.4801 80.1714 13.0526 80.7332 13.05 80.72C13.0473 80.7068 13.0473 77.3174 13.05 73.1895L13.0526 65.6853L23.7113 76.3415V72.7147H27.3389L16.6803 62.0585C28.3151 62.0533 31.7026 62.0533 31.7184 62.0559C31.7343 62.0585 31.1697 61.4862 30.4653 60.7819L29.1857 59.5C31.1697 57.5138 31.7343 56.9415 31.7184 56.9441C31.7026 56.9467 28.3151 56.9467 24.1862 56.9441L16.6803 56.9415L27.3389 46.2853H23.7113V42.6585L13.0526 53.3147C13.0473 41.6825 13.0473 38.2958 13.05 38.28C13.0526 38.2641 12.4801 38.8286 11.7757 39.5328L10.4935 40.8121C8.50686 38.8286 7.93436 38.2641 7.937 38.28C7.93964 38.2958 7.93964 41.6825 7.937 45.8105L7.93436 53.3147L-2.72429 42.6585V46.2853H-6.35192L4.30673 56.9415C-7.32808 56.9467 -10.7183 56.9467 -10.7315 56.9441C-10.7447 56.9415 -10.1827 57.5138 -9.47828 58.2181Z" fill="#F9F9F9"/>
<defs>
<clipPath id="clip0_1196_600">
<rect width="114.18" height="114.18" fill="white" transform="translate(-47)"/>
</clipPath>
</defs>
</svg>
