<svg width="25" height="26" viewBox="0 0 25 26" fill="none" xmlns="http://www.w3.org/2000/svg">
<path d="M12.503 6.98412L18.4632 9.99277M12.503 6.98412L6.5429 9.99277M12.503 6.98412L18.4629 3.97454M12.503 6.98412L6.5429 3.97551L12.503 0.966858L18.4629 3.97454M18.4632 9.99277L12.503 13.0014M18.4632 9.99277L24.4078 6.98319L18.4629 3.97454M18.4632 9.99277L18.4629 16.0091L12.503 19.0178M12.503 13.0014L6.5429 9.99277M12.503 13.0014L12.503 19.0178M6.5429 9.99277V16.0091L12.503 19.0178M6.53934 9.99214L0.594482 6.98349M6.53934 9.99214V16.0094M6.53934 9.99214L12.4995 6.98319L6.53935 3.97454L0.594482 6.98349M0.594482 6.98349V13.0008M0.594482 13.0008L6.53934 16.0094M0.594482 13.0008V19.0174L6.53934 22.0261V16.0094M12.503 19.019L6.5429 16.0103V22.0276L12.503 25.0363M12.503 19.019V25.0363M12.503 19.019L18.4629 16.0103V22.0276L12.503 25.0363M18.4598 9.99277L24.4047 6.98412V13.0014L18.4598 16.0101V9.99277ZM18.4598 16.0088L24.4047 13.0001V19.0174L18.4598 22.0261V16.0088Z" stroke="url(#paint0_linear_1316_223)" stroke-width="0.892857" stroke-miterlimit="10"/>
<defs>
<linearGradient id="paint0_linear_1316_223" x1="-8" y1="-6.5" x2="17.5932" y2="-16.2612" gradientUnits="userSpaceOnUse">
<stop stop-color="#0A0816"/>
<stop offset="0.383527" stop-color="#DEDCFF"/>
<stop offset="1" stop-color="#333357"/>
</linearGradient>
</defs>
</svg>
