<svg width="25" height="26" viewBox="0 0 25 26" fill="none" xmlns="http://www.w3.org/2000/svg">
<path d="M15.8779 9.03194C15.8779 10.487 14.6874 11.6774 13.2324 11.6774M10.5871 14.3221C10.5871 12.867 11.7776 11.6766 13.2326 11.6766M21.1657 3.74055C21.1657 5.19558 19.9752 6.38605 18.5202 6.38605M5.29379 19.6141C5.29379 21.0691 4.10332 22.2596 2.64829 22.2596M5.29642 19.6142C5.29642 18.1591 6.48689 16.9687 7.94192 16.9687M0 24.9048C0 23.4498 1.19048 22.2593 2.6455 22.2593M21.1627 3.74072C21.1627 2.28569 22.3532 1.09521 23.8082 1.09521M15.8806 9.03211C15.8806 7.57708 17.0711 6.3866 18.5261 6.3866M10.5844 14.3233C10.5844 15.7784 9.3939 16.9688 7.93888 16.9688M18.5261 11.6766C18.5261 13.1316 17.3357 14.3221 15.8806 14.3221M15.8779 14.3233C14.4229 14.3233 13.2324 15.5138 13.2324 16.9688C13.2324 18.4239 12.0421 19.6142 10.5871 19.6142M23.8082 6.3866C23.8082 7.84163 22.6177 9.03211 21.1627 9.03211M7.94192 22.2593C7.94192 23.7144 6.75144 24.9048 5.29642 24.9048M7.93888 22.2595C7.93888 20.8045 9.12935 19.614 10.5844 19.614M18.5202 11.6774C18.5202 10.2224 19.7107 9.03194 21.1657 9.03194M10.5871 9.03211C12.0421 9.03211 13.2326 7.84163 13.2326 6.3866C13.2326 4.93158 14.4229 3.74055 15.8779 3.74055M7.93888 11.6774C7.93888 10.2224 9.12935 9.03194 10.5844 9.03194M18.5261 1.09521C18.5261 2.55024 17.3357 3.74072 15.8806 3.74072M2.6455 16.9687C2.6455 18.4237 1.45503 19.6142 0 19.6142M2.64829 16.9687C2.64829 15.5137 3.83877 14.3232 5.29379 14.3232M7.94192 11.6766C7.94192 13.1316 6.75144 14.3221 5.29642 14.3221M21.1657 14.3233C21.1657 15.7784 19.9752 16.9688 18.5202 16.9688M15.8806 19.6142C15.8806 18.1591 17.0711 16.9687 18.5261 16.9687M10.5871 24.9048C10.5871 23.4498 11.7776 22.2593 13.2326 22.2593C14.6876 22.2593 15.8779 21.069 15.8779 19.614M21.1627 14.3221C21.1627 12.867 22.3532 11.6766 23.8082 11.6766M10.5844 3.74055C10.5844 5.19558 9.3939 6.38605 7.93888 6.38605M5.29642 9.03211C5.29642 7.57708 6.48689 6.3866 7.94192 6.3866M0 14.3221C0 12.867 1.19048 11.6766 2.6455 11.6766M10.5871 3.74072C10.5871 2.28569 11.7776 1.09521 13.2326 1.09521M5.29371 9.03194C5.29371 10.487 4.10323 11.6774 2.64821 11.6774M23.8082 16.9687C23.8082 18.4237 22.6177 19.6142 21.1627 19.6142M18.5202 22.2595C18.5202 20.8045 19.7107 19.614 21.1657 19.614M18.5261 22.2593C18.5261 23.7144 17.3357 24.9048 15.8806 24.9048M7.94192 1.09521C7.94192 2.55024 6.75144 3.74072 5.29642 3.74072M2.64821 6.38605C2.64821 4.93103 3.83868 3.74055 5.29371 3.74055M2.6455 6.3866C2.6455 7.84163 1.45503 9.03211 0 9.03211M21.1627 24.9048C21.1627 23.4498 22.3532 22.2593 23.8082 22.2593M0 3.74072C0 2.28569 1.19048 1.09521 2.6455 1.09521" stroke="url(#paint0_linear_1127_3122)" stroke-width="0.735294" stroke-miterlimit="10"/>
<defs>
<linearGradient id="paint0_linear_1127_3122" x1="-12" y1="-7" x2="21.572" y2="-23.0604" gradientUnits="userSpaceOnUse">
<stop stop-color="#0A0816"/>
<stop offset="0.369792" stop-color="#DEDCFF"/>
<stop offset="0.369792" stop-color="#DEDCFF"/>
<stop offset="1" stop-color="#333357"/>
</linearGradient>
</defs>
</svg>
