<svg width="236" height="236" viewBox="0 0 236 236" fill="none" xmlns="http://www.w3.org/2000/svg">
<circle cx="118" cy="118" r="118" fill="url(#paint0_linear_474_2739)"/>
<path d="M47.6375 105.719V124.414H58.4743V127.976H43.2475V105.719H47.6375ZM60.0261 127.976V105.719H76.2352V109.28H64.4161V114.806H75.5906V118.367H64.4161V124.414H76.2352V127.976H60.0261ZM83.5474 127.976V109.28H76.7015V105.719H94.814V109.28H87.9374V127.976H83.5474ZM104.851 118.735L102.026 118.213C98.4039 117.507 95.3647 115.635 95.3647 111.766C95.3647 107.284 100.123 105.32 104.237 105.32C108.842 105.32 112.771 108.021 112.986 112.288H108.75C108.412 109.679 106.14 108.819 104.053 108.819C102.026 108.819 99.7547 109.587 99.7547 111.582C99.7547 113.148 101.075 114.007 102.855 114.345L105.772 114.867C109.394 115.512 113.385 116.955 113.385 121.559C113.385 126.134 108.842 128.375 104.36 128.375C98.8951 128.375 95.2726 125.428 94.8735 120.638H99.11C99.6012 123.893 101.873 124.875 104.513 124.875C106.478 124.875 108.964 124.169 108.964 121.774C108.964 119.871 107.215 119.165 104.851 118.735ZM127.168 127.976V109.28H120.322V105.719H138.434V109.28H131.558V127.976H127.168ZM135.088 127.976L143.377 105.719H147.797L156.117 127.976H151.359L149.793 123.463H141.136L139.57 127.976H135.088ZM145.464 111.091L142.394 119.871H148.534L145.464 111.091ZM162.059 105.719V124.414H172.896V127.976H157.669V105.719H162.059ZM178.838 105.719V115.911L187.925 105.719H193.052L184.855 114.683L193.666 127.976H188.477L181.908 117.937L178.838 121.283V127.976H174.448V105.719H178.838Z" fill="#08060C"/>
<defs>
<linearGradient id="paint0_linear_474_2739" x1="13.5853" y1="-315.382" x2="365.058" y2="-260.152" gradientUnits="userSpaceOnUse">
<stop stop-color="#0A0816"/>
<stop offset="0.369792" stop-color="#DEDCFF"/>
<stop offset="0.369792" stop-color="#DEDCFF"/>
<stop offset="1" stop-color="#333357"/>
</linearGradient>
</defs>
</svg>
