<svg width="44" height="44" viewBox="0 0 44 44" fill="none" xmlns="http://www.w3.org/2000/svg">
<path fill-rule="evenodd" clip-rule="evenodd" d="M7.5625 14.9722C7.5625 11.4852 10.2977 8.59375 13.75 8.59375C16.5654 8.59375 18.9039 10.5167 19.6709 13.1176C20.3992 12.8593 21.1828 12.7188 22 12.7188C22.8172 12.7188 23.6008 12.8593 24.3291 13.1176C25.0961 10.5167 27.4346 8.59375 30.25 8.59375C33.7023 8.59375 36.4375 11.4852 36.4375 14.9722C36.4375 17.0477 35.4685 18.9122 33.9561 20.0816C37.25 21.5642 39.5312 24.9618 39.5312 28.875H37.4688C37.4688 24.6838 34.2018 21.3507 30.25 21.3507V19.2882C32.4931 19.2882 34.375 17.3915 34.375 14.9722C34.375 12.5529 32.4931 10.6562 30.25 10.6562C28.2756 10.6562 26.5811 12.1257 26.2034 14.1275C27.9317 15.432 29.0469 17.5194 29.0469 19.8611C29.0469 22.2876 27.8495 24.441 26.0134 25.7332C29.9153 27.3431 32.6562 31.2297 32.6562 35.75H30.5938C30.5938 30.9041 26.7309 27.0035 22 27.0035C17.2691 27.0035 13.4062 30.9041 13.4062 35.75H11.3438C11.3438 31.2297 14.0847 27.3431 17.9866 25.7332C16.1505 24.441 14.9531 22.2876 14.9531 19.8611C14.9531 17.5194 16.0683 15.432 17.7966 14.1275C17.4189 12.1257 15.7244 10.6562 13.75 10.6562C11.5069 10.6562 9.625 12.5529 9.625 14.9722C9.625 17.3915 11.5069 19.2882 13.75 19.2882V21.3507C9.79822 21.3507 6.53125 24.6838 6.53125 28.875H4.46875C4.46875 24.9618 6.75005 21.5642 10.0439 20.0816C8.53146 18.9122 7.5625 17.0477 7.5625 14.9722ZM22 14.7812C19.2625 14.7812 17.0156 17.0402 17.0156 19.8611C17.0156 22.682 19.2625 24.941 22 24.941C24.7375 24.941 26.9844 22.682 26.9844 19.8611C26.9844 17.0402 24.7375 14.7812 22 14.7812Z" fill="url(#paint0_linear_1304_66)"/>
<defs>
<linearGradient id="paint0_linear_1304_66" x1="-5.50001" y1="44.4995" x2="-0.80137" y2="-4.0182" gradientUnits="userSpaceOnUse">
<stop stop-color="#0A0816"/>
<stop offset="0.369792" stop-color="#DEDCFF"/>
<stop offset="0.369792" stop-color="#DEDCFF"/>
<stop offset="1" stop-color="#333357"/>
</linearGradient>
</defs>
</svg>
